# xmcd CD database file
#
# Track frame offsets:
#	150
#	26487
#	48667
#	70675
#	92210
#	101610
#	121155
#	143817
#	170225
#	173787
#	197487
#	224400
#	235375
#	257825
#	271450
#
# Disc length: 3889 seconds
#
# Revision: 2
# Processed by: cddbd v1.5.1PL0 Copyright (c) Steve Scherf et al.
# Submitted via: CDex 1.51
#
DISCID=df0f2f0f
DTITLE=Various Artist - 別れの曲/ショパン・ピアノ名曲集
DYEAR=1988
DGENRE=Classical
TTITLE0=幻想即興曲 嬰ハ短調 作品66
TTITLE1=ノクターン 変ホ長調 作品9の2
TTITLE2=ノクターン ホ短調 作品72の1
TTITLE3=ノクターン 嬰ハ短調 遺作
TTITLE4=子犬のワルツ 変ニ長調 作品64の1
TTITLE5=ワルツ 嬰ハ短調 作品64の2
TTITLE6=別れのワルツ 変イ長調 作品69の1
TTITLE7=前奏曲《雨だれ》 変ニ長調 作品28の15
TTITLE8=前奏曲 イ長調 作品28の7
TTITLE9=軍隊ポロネーズ イ長調 作品40の1
TTITLE10=英雄ポロネーズ 変イ長調 作品53
TTITLE11=マズルカ 変ロ長調 作品7の1
TTITLE12=子守唄 変ニ長調 作品57
TTITLE13=革命のエチュード ハ短調 作品10の12
TTITLE14=エチュード《別れの曲》 ホ長調 作品10の3
EXTD=YEAR: 1988
EXTT0=
EXTT1=
EXTT2=
EXTT3=
EXTT4=
EXTT5=
EXTT6=
EXTT7=
EXTT8=
EXTT9=
EXTT10=
EXTT11=
EXTT12=
EXTT13=
EXTT14=
PLAYORDER=
